<svg xmlns="http://www.w3.org/2000/svg" viewBox="0 -0.5 15 17" shape-rendering="crispEdges">
<metadata>Made with Pixels to Svg https://codepen.io/shshaw/pen/XbxvNj</metadata>
<path stroke="#000000" d="M6 0h3M4 1h2M9 1h2M2 2h2M11 2h2M1 3h1M13 3h2M0 4h1M14 4h1M0 5h2M13 5h2M0 6h1M2 6h2M11 6h2M14 6h1M0 7h1M4 7h2M9 7h2M14 7h1M0 8h1M6 8h3M14 8h1M0 9h1M7 9h1M14 9h1M0 10h1M7 10h1M14 10h1M0 11h1M7 11h1M14 11h1M0 12h1M7 12h1M14 12h1M0 13h2M7 13h1M13 13h2M2 14h2M7 14h1M11 14h2M4 15h2M7 15h1M9 15h2M6 16h3" />
<path stroke="#81d5e4" d="M6 1h3M4 2h7M2 3h11M1 4h13M2 5h11M4 6h7M6 7h3" />
<path stroke="#006071" d="M1 6h1M1 7h3M1 8h5M1 9h6M1 10h6M1 11h6M1 12h6M2 13h5M4 14h3M6 15h1" />
<path stroke="#2b99ad" d="M13 6h1M11 7h3M9 8h5M8 9h6M8 10h6M8 11h6M8 12h6M8 13h5M8 14h3M8 15h1" />
</svg>